<?xml version="1.0" encoding="iso-8859-1"?>
<!-- Generator: Adobe Illustrator 19.0.0, SVG Export Plug-In . SVG Version: 6.00 Build 0)  -->
<svg xmlns="http://www.w3.org/2000/svg"  version="1.1" id="Layer_1" x="0px" y="0px" viewBox="0 0 512 512" style="enable-background:new 0 0 512 512;" xml:space="preserve" width="512px" height="512px">
<g>
	<g>
		<path d="M469.362,97.771H42.638C19.09,97.77,0,116.861,0,140.41v12.633h512V140.41C512,116.861,492.91,97.771,469.362,97.771z" fill="#e39309"/>
	</g>
</g>
<g>
	<g>
		<path d="M0,203.13v168.46c0,23.549,19.09,42.638,42.638,42.638h426.723c23.549,0,42.638-19.09,42.638-42.638V203.13H0z     M151.41,344.138H62.916v-33.391h88.494V344.138z M438.587,371.021c-9.099,0-17.293-3.858-23.05-10.021    c-5.757,6.163-13.951,10.021-23.05,10.021c-17.421,0-31.544-14.122-31.544-31.544c0-17.421,14.122-31.544,31.544-31.544    c9.099,0,17.293,3.858,23.05,10.021c5.757-6.163,13.951-10.021,23.05-10.021c17.421,0,31.544,14.122,31.544,31.544    C470.131,356.899,456.007,371.021,438.587,371.021z" fill="#e39309"/>
	</g>
</g>
<g>
</g>
<g>
</g>
<g>
</g>
<g>
</g>
<g>
</g>
<g>
</g>
<g>
</g>
<g>
</g>
<g>
</g>
<g>
</g>
<g>
</g>
<g>
</g>
<g>
</g>
<g>
</g>
<g>
</g>
</svg>
