<?xml version="1.0" ?>
<svg enable-background="new 0 0 64 64" height="64px" version="1.1" viewBox="0 0 64 64" width="64px" xml:space="preserve" xmlns="http://www.w3.org/2000/svg" ><g id="Layer_1"><g><circle cx="32" cy="32" fill="#77B3D4" r="32"/></g><g opacity="0.2"><path d="M52,45c0,2.209-1.791,4-4,4H16c-2.209,0-4-1.791-4-4V25c0-2.209,1.791-4,4-4h32c2.209,0,4,1.791,4,4V45z" fill="#231F20"/></g><g><path d="M52,43c0,2.209-1.791,4-4,4H16c-2.209,0-4-1.791-4-4V23c0-2.209,1.791-4,4-4h32c2.209,0,4,1.791,4,4V43z" fill="#FFFFFF"/></g><g><rect fill="#4F5D73" height="6" width="40" x="12" y="25"/></g><g><circle cx="38" cy="41" fill="#E0995E" r="2"/></g><g><circle cx="46" cy="41" fill="#E0995E" r="2"/></g><g><circle cx="30" cy="41" fill="#E0995E" r="2"/></g></g><g id="Layer_2"/></svg>