<?xml version="1.0" encoding="iso-8859-1"?>
<svg xmlns="http://www.w3.org/2000/svg" version="1.1" viewBox="0 0 21 21" enable-background="new 0 0 21 21"
     width="512px" height="512px">
    <g>
        <path d="m15,13c-1.657,0-3,1.343-3,3s1.343,3 3,3 3-1.343 3-3-1.343-3-3-3zm0,4c-0.552,0-1-0.448-1-1 0-0.552 0.448-1 1-1s1,0.448 1,1c0,0.552-0.448,1-1,1z"
              fill="#FFFFFF"/>
        <path d="M0,13v2h1.184C1.072,15.314,1,15.647,1,16c0,1.657,1.343,3,3,3s3-1.343,3-3c0-1.51-1.12-2.747-2.572-2.957   C4.615,13.016,4.805,13,5,13H0z M5,16c0,0.552-0.448,1-1,1s-1-0.448-1-1c0-0.552,0.448-1,1-1S5,15.448,5,16z"
              fill="#FFFFFF"/>
        <path d="M20.014,15.003C20.031,13.589,20.052,11.054,20,10c-0.092-1.874-0.932-3.579-2-5.001h0C17.999,4.447,17.552,4,17,4h-5   c-0.552,0-1,0.448-1,1v8H5c1.474,0,2.75,0.81,3.444,2h0.142c0.905,0,1.774,0.36,2.414,1h0.142c0.447-1.72,2-3,3.858-3   c2.206,0,4,1.794,4,4h1c0.552,0,1-0.448,1-1C21,15.453,20.559,15.011,20.014,15.003z M17.477,9H14V5h2.528   c0.159,0,0.308,0.071,0.401,0.2c0.513,0.71,1.217,1.827,1.484,2.446C18.69,8.288,18.177,9,17.477,9z"
              fill="#FFFFFF"/>
        <path d="M9,2H1C0.448,2,0,2.448,0,3v9c0,0.552,0.448,1,1,1h8c0.552,0,1-0.448,1-1V3C10,2.448,9.552,2,9,2z"
              fill="#FFFFFF"/>
    </g>
</svg>
