<?xml version="1.0" encoding="iso-8859-1"?>
<!-- Generator: Adobe Illustrator 19.0.0, SVG Export Plug-In . SVG Version: 6.00 Build 0)  -->
<svg xmlns="http://www.w3.org/2000/svg"  version="1.1" id="Layer_1" x="0px" y="0px" viewBox="0 0 470 470" style="enable-background:new 0 0 470 470;" xml:space="preserve" width="512px" height="512px">
<g>
	<path d="M162.5,102.5c0-39.977,32.523-72.5,72.5-72.5s72.5,32.523,72.5,72.5V160h30v-57.5C337.5,45.981,291.519,0,235,0   S132.5,45.981,132.5,102.5V160h30V102.5z" fill="#FFFFFF"/>
	<path d="M77.5,190v280h315V190H77.5z M250,338.058v53.557h-30v-53.557c-11.824-5.618-20-17.666-20-31.627c0-19.33,15.67-35,35-35   s35,15.67,35,35C270,320.392,261.824,332.441,250,338.058z" fill="#FFFFFF"/>
</g>
<g>
</g>
<g>
</g>
<g>
</g>
<g>
</g>
<g>
</g>
<g>
</g>
<g>
</g>
<g>
</g>
<g>
</g>
<g>
</g>
<g>
</g>
<g>
</g>
<g>
</g>
<g>
</g>
<g>
</g>
</svg>
