<?xml version="1.0" encoding="iso-8859-1"?>
<!-- Generator: Adobe Illustrator 19.0.0, SVG Export Plug-In . SVG Version: 6.00 Build 0)  -->
<svg xmlns="http://www.w3.org/2000/svg"  version="1.1" id="Layer_1" x="0px" y="0px" viewBox="0 0 473.271 473.271" style="enable-background:new 0 0 473.271 473.271;" xml:space="preserve" width="512px" height="512px">
<g>
	<path d="M236.636,0C136.49,0,55.016,81.474,55.016,181.619c0,41.232,13.525,80.127,39.139,112.514l142.481,179.138l142.508-179.171   c25.587-32.354,39.112-71.25,39.112-112.481C418.256,81.474,336.781,0,236.636,0z M355.639,275.459L236.636,425.078   L117.659,275.491c-21.355-27.003-32.644-59.463-32.644-93.872C85.016,98.016,153.032,30,236.636,30s151.62,68.016,151.62,151.619   C388.256,216.028,376.968,248.489,355.639,275.459z" fill="#e39309"/>
	<path d="M236.636,104.397c-41.355,0-75,33.645-75,75s33.645,75,75,75s75-33.645,75-75S277.991,104.397,236.636,104.397z    M236.636,224.397c-24.813,0-45-20.187-45-45s20.187-45,45-45s45,20.187,45,45S261.449,224.397,236.636,224.397z" fill="#e39309"/>
</g>
<g>
</g>
<g>
</g>
<g>
</g>
<g>
</g>
<g>
</g>
<g>
</g>
<g>
</g>
<g>
</g>
<g>
</g>
<g>
</g>
<g>
</g>
<g>
</g>
<g>
</g>
<g>
</g>
<g>
</g>
</svg>
