<?xml version="1.0" ?>
<svg enable-background="new 0 0 64 64" height="64px" id="Layer_1" version="1.1" viewBox="0 0 64 64" width="64px" xml:space="preserve" xmlns="http://www.w3.org/2000/svg" ><circle cx="32" cy="32" fill="#E0E0D1" r="32"/><g opacity="0.2"><path d="M36,18H14c-2.209,0-4,1.791-4,4v16c0,2.209,1.791,4,4,4v2c0,2.209,1.791,4,4,4s4-1.791,4-4v-2h18   c0,0,0-1.791,0-4V22C40,19.791,38.209,18,36,18z" fill="#231F20"/><path d="M50,26h-8c0,0,0,1.791,0,4v8c0,1.202,0,2.267,0,3c0,0.615,0,1,0,1v2c0,2.209,1.791,4,4,4s4-1.791,4-4v-2   c2.209,0,4,0,4,0V30C54,27.791,52.209,26,50,26z" fill="#231F20"/></g><path d="M40,36c0,2.209,0,4,0,4H14c-2.209,0-4-1.791-4-4V20c0-2.209,1.791-4,4-4h22c2.209,0,4,1.791,4,4V36z" fill="#E0995E"/><path d="M54,40c0,0-1.791,0-4,0h-8c0,0,0-1.791,0-4v-8c0-2.209,0-4,0-4h8c2.209,0,4,1.791,4,4V40z" fill="#C75C5C"/><g><path d="M18,46c2.209,0,4-1.791,4-4h-8C14,44.209,15.791,46,18,46z" fill="#4F5D73"/><path d="M46,46c2.209,0,4-1.791,4-4h-8C42,44.209,43.791,46,46,46z" fill="#4F5D73"/></g></svg>